Coordinates
version=1
nRows=17
nColumns=38
inDegrees=yes

Units are S.I. units (second, meters, Newtons, ...)
If the header above contains a line with 'inDegrees', this indicates whether rotational values are in degrees (yes) or radians (no).

endheader
time	pelvis_tilt	pelvis_list	pelvis_rotation	pelvis_tx	pelvis_ty	pelvis_tz	hip_flexion_r	hip_adduction_r	hip_rotation_r	knee_angle_r	ankle_angle_r	subtalar_angle_r	mtp_angle_r	hip_flexion_l	hip_adduction_l	hip_rotation_l	knee_angle_l	ankle_angle_l	subtalar_angle_l	mtp_angle_l	lumbar_extension	lumbar_bending	lumbar_rotation	arm_flex_r	arm_add_r	arm_rot_r	elbow_flex_r	pro_sup_r	wrist_flex_r	wrist_dev_r	arm_flex_l	arm_add_l	arm_rot_l	elbow_flex_l	pro_sup_l	wrist_flex_l	wrist_dev_l
      0.86000000	     -3.61818152	      4.92776473	    -87.73469023	      0.21609027	      0.91828237	     -0.24196232	     23.01665825	      7.55661684	     -4.71466950	    -22.05288811	      2.56691536	      0.00000000	      0.00000000	     22.31974555	     -3.93623652	      0.66702636	    -68.50983335	     -9.04839613	      0.00000000	      0.00000000	     -0.08297734	      5.04178921	     -6.48825417	     -1.42933017	     -9.93697661	     -7.93412933	     26.07732118	     86.59285353	      0.00000000	      0.00000000	      3.10075979	    -10.89202777	     -3.29481743	     28.13797226	     85.42042767	      0.00000000	      0.00000000
      0.87000000	     -3.60191451	      5.00551346	    -87.97221284	      0.21550981	      0.92043929	     -0.22993009	     21.77908903	      7.68076057	     -4.51090429	    -21.21180973	      2.83385918	      0.00000000	      0.00000000	     23.97323391	     -3.90284489	      0.70645543	    -67.95334099	     -8.03728406	      0.00000000	      0.00000000	     -0.16176356	      4.92651302	     -5.97100835	     -0.98808374	    -10.02251465	     -7.73780755	     26.65224823	     86.59848601	      0.00000000	      0.00000000	      2.70901479	    -10.85234298	     -3.20182570	     27.67071565	     85.41854601	      0.00000000	      0.00000000
      0.88000000	     -3.51416711	      5.10724429	    -88.19678761	      0.21510078	      0.92242853	     -0.21809544	     20.63223091	      7.65868924	     -4.58443286	    -20.45163501	      3.05541356	      0.00000000	      0.00000000	     25.53163576	     -3.79220054	      0.67160195	    -66.96702230	     -7.60567179	      0.00000000	      0.00000000	     -0.24161650	      4.74937207	     -5.47548202	     -0.43383280	    -10.07525383	     -7.67845316	     27.06214773	     86.60083039	      0.00000000	      0.00000000	      2.27272666	    -10.83454495	     -3.16789828	     27.37993406	     85.41863678	      0.00000000	      0.00000000
      0.89000000	     -3.44137286	      5.25550147	    -88.40489489	      0.21464567	      0.92426842	     -0.20606736	     19.41049241	      7.69089062	     -4.40928727	    -19.47769832	      3.30381966	      0.00000000	      0.00000000	     26.98853148	     -3.68888268	      0.67200424	    -65.57238602	     -6.86133639	      0.00000000	      0.00000000	     -0.20577167	      4.56262689	     -5.03466571	      0.01888323	    -10.13061715	     -7.58581660	     27.55206395	     86.60854637	      0.00000000	      0.00000000	      1.78720184	    -10.82772950	     -3.12924001	     27.00939139	     85.41665554	      0.00000000	      0.00000000
      0.90000000	     -3.46430401	      5.09670455	    -88.69675223	      0.21407682	      0.92629522	     -0.19413967	     17.88126291	      7.89437562	     -3.91185680	    -18.53183984	      3.47638587	      0.00000000	      0.00000000	     27.99208104	     -3.70891467	      0.67072713	    -63.87413387	     -5.64340330	      0.00000000	      0.00000000	     -0.58613919	      4.49502353	     -4.37087057	      0.11470366	    -10.49238459	     -6.68093546	     28.92710750	     86.59535416	      0.00000000	      0.00000000	      1.69316219	    -10.78964621	     -2.98569382	     26.25394291	     85.38543058	      0.00000000	      0.00000000
      0.91000000	     -3.40648964	      5.28477861	    -88.88478100	      0.21372519	      0.92760271	     -0.18233592	     16.79515279	      7.90758508	     -3.79357819	    -17.68933301	      3.69221042	      0.00000000	      0.00000000	     29.26167242	     -3.59207681	      0.69642052	    -61.82100270	     -5.19817036	      0.00000000	      0.00000000	     -0.52761854	      4.32356682	     -3.95414016	      0.65163129	    -10.56004558	     -6.57072061	     29.37322945	     86.58384740	      0.00000000	      0.00000000	      1.22281967	    -10.82948957	     -2.97849077	     26.00562252	     85.38000510	      0.00000000	      0.00000000
      0.92000000	     -3.36142963	      5.41706564	    -89.06996621	      0.21339639	      0.92878306	     -0.17051151	     15.62958182	      7.94565992	     -3.57804367	    -16.81036568	      3.91047842	      0.00000000	      0.00000000	     30.33014255	     -3.49821370	      0.71447447	    -59.45147222	     -4.71721336	      0.00000000	      0.00000000	     -0.53294385	      4.16158365	     -3.53851277	      1.13573544	    -10.67022215	     -6.41946349	     29.95134058	     86.58062197	      0.00000000	      0.00000000	      0.78834892	    -10.86718393	     -2.98582417	     25.74781768	     85.36750382	      0.00000000	      0.00000000
      0.93000000	     -3.32060043	      5.20065397	    -89.26163901	      0.21315775	      0.93025191	     -0.15842321	     14.06319799	      7.98755806	     -3.34201367	    -15.90528553	      4.11969212	      0.00000000	      0.00000000	     30.83982881	     -3.42399972	      0.70940738	    -56.73788342	     -4.25806253	      0.00000000	      0.00000000	     -0.93470636	      4.02342440	     -3.04348736	      1.40924327	    -10.96419665	     -5.84673455	     31.01376199	     86.56492090	      0.00000000	      0.00000000	      0.46414690	    -10.88189888	     -3.06352812	     25.45292624	     85.32090463	      0.00000000	      0.00000000
      0.94000000	     -3.39296632	      5.44383058	    -89.37087714	      0.21297903	      0.93066663	     -0.14658633	     13.07494526	      8.09958387	     -3.35720963	    -15.11296442	      4.36116194	      0.00000000	      0.00000000	     31.83091025	     -3.42210163	      0.82251389	    -53.89143446	     -4.03161979	      0.00000000	      0.00000000	     -0.77817979	      3.99626859	     -2.70638948	      1.91945101	    -11.09019170	     -5.75952410	     31.48471607	     86.55594211	      0.00000000	      0.00000000	      0.01601781	    -10.93040678	     -3.08607490	     25.23816242	     85.31251944	      0.00000000	      0.00000000
      0.95000000	     -3.38232975	      5.27334579	    -89.48453638	      0.21289965	      0.93150839	     -0.13441192	     11.56203294	      8.14546919	     -3.12542064	    -14.21848894	      4.62634821	      0.00000000	      0.00000000	     32.16647881	     -3.34225674	      0.91969698	    -50.69876827	     -3.83471445	      0.00000000	      0.00000000	     -1.10778008	      3.87798214	     -2.33812481	      2.23354840	    -11.37525622	     -5.24241488	     32.49770028	     86.53719532	      0.00000000	      0.00000000	     -0.34980797	    -10.96627868	     -3.24406368	     25.04734347	     85.26268410	      0.00000000	      0.00000000
      0.96000000	     -3.58713072	      5.53758009	    -89.55999455	      0.21280123	      0.93126485	     -0.12245280	     10.69101909	      8.37620772	     -3.25172355	    -13.61619324	      4.85705020	      0.00000000	      0.00000000	     32.98264474	     -3.47371807	      1.10866042	    -47.46107671	     -3.61319726	      0.00000000	      0.00000000	     -0.90415211	      3.99890137	     -2.02983810	      2.71793665	    -11.52315115	     -5.19852286	     32.91718359	     86.53017949	      0.00000000	      0.00000000	     -0.78797637	    -10.99082894	     -3.26878504	     24.86292335	     85.25613760	      0.00000000	      0.00000000
      0.97000000	     -3.59909391	      5.26733743	    -89.60863849	      0.21292281	      0.93168377	     -0.11000826	      8.99333254	      8.44060195	     -3.00087024	    -12.59769779	      5.20365613	      0.00000000	      0.00000000	     32.98293209	     -3.37711391	      1.29000115	    -43.84935060	     -3.54463304	      0.00000000	      0.00000000	     -1.31815441	      3.92140090	     -1.72723164	      2.96072018	    -11.87842216	     -4.54566869	     34.07698086	     86.50210966	      0.00000000	      0.00000000	     -1.14581733	    -11.02888849	     -3.56342833	     24.74987371	     85.18669360	      0.00000000	      0.00000000
      0.98000000	     -3.76000662	      5.31128145	    -89.66045947	      0.21294913	      0.93123497	     -0.09769032	      7.78090276	      8.64389048	     -2.88807839	    -11.84547375	      5.51877664	      0.00000000	      0.00000000	     33.30245816	     -3.45341722	      1.53537652	    -40.19313108	     -3.40735073	      0.00000000	      0.00000000	     -1.35024607	      3.99547821	     -1.45388787	      3.32428852	    -12.15947532	     -4.12518143	     34.83130003	     86.46132087	      0.00000000	      0.00000000	     -1.55137516	    -11.05922837	     -3.80793442	     24.62054746	     85.14764557	      0.00000000	      0.00000000
      0.99000000	     -4.11305152	      5.61769331	    -89.69463698	      0.21295033	      0.92996391	     -0.08550300	      7.00153477	      9.01392847	     -3.10578577	    -11.35360761	      5.75564366	      0.00000000	      0.00000000	     33.92390292	     -3.75460371	      1.77695250	    -36.55508088	     -3.11008335	      0.00000000	      0.00000000	     -1.08092223	      4.29062169	     -1.18565710	      3.81970363	    -12.31590496	     -4.11867011	     35.22596948	     86.45449197	      0.00000000	      0.00000000	     -1.94165179	    -11.08931969	     -3.84099995	     24.47453336	     85.14292235	      0.00000000	      0.00000000
      1.00000000	     -4.22734589	      5.30405067	    -89.71459127	      0.21318370	      0.92953306	     -0.07256007	      5.22685829	      9.17445529	     -2.84202847	    -10.34345164	      6.19416714	      0.00000000	      0.00000000	     33.58091265	     -3.73709788	      2.21136494	    -32.53458160	     -3.02631734	      0.00000000	      0.00000000	     -1.47514181	      4.31850865	     -0.93442633	      3.97406656	    -12.72988866	     -3.47947117	     36.35102058	     86.41860551	      0.00000000	      0.00000000	     -2.32245379	    -11.09775322	     -4.30483571	     24.43935473	     85.06690642	      0.00000000	      0.00000000
      1.01000000	     -4.57847043	      5.59221782	    -89.73382568	      0.21327768	      0.92774603	     -0.05990195	      4.31240410	      9.56048997	     -2.81726268	     -9.70098122	      6.53506345	      0.00000000	      0.00000000	     33.97243933	     -4.00356821	      2.65927028	    -28.68642920	     -2.72209164	      0.00000000	      0.00000000	     -1.16113113	      4.60615026	     -0.69952641	      4.35146163	    -12.91921490	     -3.41547820	     36.79266668	     86.40736412	      0.00000000	      0.00000000	     -2.73603237	    -11.13569528	     -4.40118414	     24.30578618	     85.05459703	      0.00000000	      0.00000000
      1.02000000	     -4.85877226	      5.34087022	    -89.75358120	      0.21354668	      0.92654862	     -0.04681019	      2.71563448	      9.87452074	     -2.63294737	     -8.93658779	      6.99858340	      0.00000000	      0.00000000	     33.63500112	     -4.23615586	      2.98590634	    -24.69375520	     -2.47799816	      0.00000000	      0.00000000	     -1.47893020	      4.84301347	     -0.44732922	      4.56419298	    -13.25890032	     -2.97747968	     37.73304385	     86.38238442	      0.00000000	      0.00000000	     -3.07632692	    -11.06998262	     -4.79136468	     24.30525598	     84.99582746	      0.00000000	      0.00000000
